<svg
      width="76"
      height="62"
      viewBox="0 56.72442390732606"
      class="looka-1j8o68f"
      xmlns="http://www.w3.org/2000/svg"
    >
      <defs id="SvgjsDefs1699"></defs>
      <g
        id="SvgjsG1700"
        featurekey="symbolFeature-0"
        transform="matrix(-0.8693664626074599,0,0,0.8693664626074599,81.5118030494275,-15.106111176709963)"
        fill="#cdf27e"
      >
        <polygon
          xmlns="http://www.w3.org/2000/svg"
          points="38.612,46.202 37.018,44.608 37.018,42.354 38.612,40.76 40.866,40.76 42.46,42.354 42.46,44.608 40.866,46.202 "
        ></polygon>
        <polygon
          xmlns="http://www.w3.org/2000/svg"
          points="67.008,17.376 50,17.376 32.992,17.376 6.24,40.449 6.24,50.801 22.065,64.996 28.8,63.61 28.8,38.227   30.277,38.227 30.166,71.28 42.894,82.624 43.875,81.562 32.904,70.119 33.021,35.492 26.065,35.492 26.065,61.381 22.864,62.04   8.975,49.58 8.975,41.701 34.008,20.11 50,20.11 65.992,20.11 91.025,41.701 91.025,49.58 77.137,62.04 73.936,61.381   73.936,35.492 66.98,35.492 67.096,70.119 56.125,81.562 57.105,82.624 69.834,71.28 69.723,38.227 71.199,38.227 71.199,63.61   77.936,64.996 93.76,50.801 93.76,40.449 "
        ></polygon>
        <polygon
          xmlns="http://www.w3.org/2000/svg"
          points="61.389,46.202 62.982,44.608 62.982,42.354 61.389,40.76 59.135,40.76 57.541,42.354 57.541,44.608 59.135,46.202   "
        ></polygon>
        <polygon
          xmlns="http://www.w3.org/2000/svg"
          points="53.949,62.192 50,62.192 46.05,62.192 44.068,63.82 44.569,66.996 50,72.181 55.432,66.996 55.932,63.82 "
        ></polygon>
      </g>
    </svg>