<svg width="427.05" height="65.48610722629792" viewBox="0 0 369.9130434782609 56.72442390732606" class="looka-1j8o68f" xmlns="http://www.w3.org/2000/svg"
><defs id="SvgjsDefs1699"></defs><g id="SvgjsG1700" featurekey="symbolFeature-0" transform="matrix(-0.8693664626074599,0,0,0.8693664626074599,81.5118030494275,-15.106111176709963)" fill="#cdf27e"><polygon xmlns="http://www.w3.org/2000/svg" points="38.612,46.202 37.018,44.608 37.018,42.354 38.612,40.76 40.866,40.76 42.46,42.354 42.46,44.608 40.866,46.202 "></polygon><polygon xmlns="http://www.w3.org/2000/svg" points="67.008,17.376 50,17.376 32.992,17.376 6.24,40.449 6.24,50.801 22.065,64.996 28.8,63.61 28.8,38.227   30.277,38.227 30.166,71.28 42.894,82.624 43.875,81.562 32.904,70.119 33.021,35.492 26.065,35.492 26.065,61.381 22.864,62.04   8.975,49.58 8.975,41.701 34.008,20.11 50,20.11 65.992,20.11 91.025,41.701 91.025,49.58 77.137,62.04 73.936,61.381   73.936,35.492 66.98,35.492 67.096,70.119 56.125,81.562 57.105,82.624 69.834,71.28 69.723,38.227 71.199,38.227 71.199,63.61   77.936,64.996 93.76,50.801 93.76,40.449 "></polygon><polygon xmlns="http://www.w3.org/2000/svg" points="61.389,46.202 62.982,44.608 62.982,42.354 61.389,40.76 59.135,40.76 57.541,42.354 57.541,44.608 59.135,46.202   "></polygon><polygon xmlns="http://www.w3.org/2000/svg" points="53.949,62.192 50,62.192 46.05,62.192 44.068,63.82 44.569,66.996 50,72.181 55.432,66.996 55.932,63.82 "></polygon><path xmlns="http://www.w3.org/2000/svg" d="M66.5,18.743"></path></g><g id="SvgjsG1701" featurekey="nameFeature-0" transform="matrix(1.9669183849121519,0,0,1.9669183849121519,94.81984821873289,2.670553404313207)" fill="#cdf27e"><path d="M20.54 6 l-4.6 14 l-2.1 0 l-3.28 -8.86 l-3.26 8.86 l-2.1 0 l-4.6 -14 l3.08 0 l2.68 8.3 l3.06 -8.3 l2.3 0 l3.06 8.3 l2.68 -8.3 l3.08 0 z M29.3 5.800000000000001 c3.9 0 7.26 2.94 7.26 7.2 s-3.36 7.2 -7.26 7.2 s-7.26 -2.94 -7.26 -7.2 s3.36 -7.2 7.26 -7.2 z M29.3 17.46 c2.36 0 4.22 -1.86 4.22 -4.46 s-1.86 -4.46 -4.22 -4.46 s-4.22 1.86 -4.22 4.46 s1.86 4.46 4.22 4.46 z M45.620000000000005 5.800000000000001 c3.9 0 7.26 2.94 7.26 7.2 s-3.36 7.2 -7.26 7.2 s-7.26 -2.94 -7.26 -7.2 s3.36 -7.2 7.26 -7.2 z M45.620000000000005 17.46 c2.36 0 4.22 -1.86 4.22 -4.46 s-1.86 -4.46 -4.22 -4.46 s-4.22 1.86 -4.22 4.46 s1.86 4.46 4.22 4.46 z M63.84 8.66 l-5.86 0 l0 3.06 l4.82 0 l0 2.5 l-4.82 0 l0 5.78 l-3 0 l0 -14 l8.86 0 l0 2.66 z M85.08000000000001 6 l-4.6 14 l-2.1 0 l-3.28 -8.86 l-3.26 8.86 l-2.1 0 l-4.6 -14 l3.08 0 l2.68 8.3 l3.06 -8.3 l2.3 0 l3.06 8.3 l2.68 -8.3 l3.08 0 z M93.84 5.800000000000001 c3.9 0 7.26 2.94 7.26 7.2 s-3.36 7.2 -7.26 7.2 s-7.26 -2.94 -7.26 -7.2 s3.36 -7.2 7.26 -7.2 z M93.84 17.46 c2.36 0 4.22 -1.86 4.22 -4.46 s-1.86 -4.46 -4.22 -4.46 s-4.22 1.86 -4.22 4.46 s1.86 4.46 4.22 4.46 z M114.22 20 l-3.1 0 l-2.98 -4.66 l-0.04 0 l-1.98 0 l0 4.66 l-2.92 0 l0 -14 l4.9 0 c3.14 0 5.18 1.9 5.18 4.76 c0 1.9 -0.92 3.32 -2.48 4.04 z M106.12 8.68 l0 4.14 l1.8 0 c1.44 0 2.44 -0.56 2.44 -2.06 c0 -1.48 -1 -2.08 -2.44 -2.08 l-1.8 0 z M125.08 20 l-4.34 -6 l-1.72 1.96 l0 4.04 l-3 0 l0 -14 l3 0 l0 6.1 l5.18 -6.1 l3.6 0 l-5.26 5.96 l5.9 8.04 l-3.36 0 z M134.72 5.76 c2.46 0 4.02 1.54 4.76 2.9 l-2.16 1.28 c-0.76 -1.06 -1.5 -1.6 -2.6 -1.6 c-0.98 0 -1.7 0.58 -1.7 1.38 s0.46 1.22 1.56 1.62 l0.96 0.34 c3.1 1.1 4.32 2.48 4.32 4.4 c0 2.82 -2.68 4.22 -5.06 4.22 c-2.52 0 -4.48 -1.5 -5.16 -3.46 l2.24 -1.18 c0.5 1.02 1.34 2 2.92 2 c1.14 0 2.02 -0.5 2.02 -1.54 c0 -1 -0.6 -1.44 -2.12 -2.02 l-0.86 -0.3 c-2.06 -0.74 -3.72 -1.76 -3.72 -4.2 c0 -2.24 2.1 -3.84 4.6 -3.84 z"></path></g></svg>